<?xml version="1.0" encoding="UTF-8" standalone="no"?>
<!DOCTYPE svg PUBLIC "-//W3C//DTD SVG 1.1//EN"
 "http://www.w3.org/Graphics/SVG/1.1/DTD/svg11.dtd">
<!-- Generated by graphviz version 2.40.1 (20161225.0304)
 -->
<!-- Title: Tree Pages: 1 -->
<svg width="657pt" height="552pt"
 viewBox="0.00 0.00 657.00 552.00" xmlns="http://www.w3.org/2000/svg" xmlns:xlink="http://www.w3.org/1999/xlink">
<g id="graph0" class="graph" transform="scale(1 1) rotate(0) translate(4 548)">
<title>Tree</title>
<polygon fill="#ffffff" stroke="transparent" points="-4,4 -4,-548 653,-548 653,4 -4,4"/>
<!-- 0 -->
<g id="node1" class="node">
<title>0</title>
<path fill="#39e581" fill-opacity="0.101961" stroke="#000000" d="M264,-544C264,-544 182,-544 182,-544 176,-544 170,-538 170,-532 170,-532 170,-473 170,-473 170,-467 176,-461 182,-461 182,-461 264,-461 264,-461 270,-461 276,-467 276,-473 276,-473 276,-532 276,-532 276,-538 270,-544 264,-544"/>
<text text-anchor="start" x="180" y="-528.8" font-family="Helvetica,sans-Serif" font-size="14.00" fill="#000000">flavanoids ≤ 1.575</text>
<text text-anchor="start" x="186" y="-513.8" font-family="Helvetica,sans-Serif" font-size="14.00" fill="#000000">entropy = 1.567</text>
<text text-anchor="start" x="188.5" y="-498.8" font-family="Helvetica,sans-Serif" font-size="14.00" fill="#000000">samples = 178</text>
<text text-anchor="start" x="178" y="-483.8" font-family="Helvetica,sans-Serif" font-size="14.00" fill="#000000">value = [59, 71, 48]</text>
<text text-anchor="start" x="187" y="-468.8" font-family="Helvetica,sans-Serif" font-size="14.00" fill="#000000">class = class_1</text>
</g>
<!-- 1 -->
<g id="node2" class="node">
<title>1</title>
<path fill="#8139e5" fill-opacity="0.709804" stroke="#000000" d="M207.5,-425C207.5,-425 110.5,-425 110.5,-425 104.5,-425 98.5,-419 98.5,-413 98.5,-413 98.5,-354 98.5,-354 98.5,-348 104.5,-342 110.5,-342 110.5,-342 207.5,-342 207.5,-342 213.5,-342 219.5,-348 219.5,-354 219.5,-354 219.5,-413 219.5,-413 219.5,-419 213.5,-425 207.5,-425"/>
<text text-anchor="start" x="106.5" y="-409.8" font-family="Helvetica,sans-Serif" font-size="14.00" fill="#000000">color_intensity ≤ 3.825</text>
<text text-anchor="start" x="122" y="-394.8" font-family="Helvetica,sans-Serif" font-size="14.00" fill="#000000">entropy = 0.771</text>
<text text-anchor="start" x="127.5" y="-379.8" font-family="Helvetica,sans-Serif" font-size="14.00" fill="#000000">samples = 62</text>
<text text-anchor="start" x="117" y="-364.8" font-family="Helvetica,sans-Serif" font-size="14.00" fill="#000000">value = [0, 14, 48]</text>
<text text-anchor="start" x="123" y="-349.8" font-family="Helvetica,sans-Serif" font-size="14.00" fill="#000000">class = class_2</text>
</g>
<!-- 0&#45;&gt;1 -->
<g id="edge1" class="edge">
<title>0&#45;&gt;1</title>
<path fill="none" stroke="#000000" d="M200.6159,-460.8796C196.0144,-452.3236 191.1204,-443.2238 186.3658,-434.3833"/>
<polygon fill="#000000" stroke="#000000" points="189.2988,-432.4473 181.4796,-425.2981 183.1338,-435.763 189.2988,-432.4473"/>
<text text-anchor="middle" x="174.2839" y="-445.5401" font-family="Helvetica,sans-Serif" font-size="14.00" fill="#000000">True</text>
</g>
<!-- 6 -->
<g id="node7" class="node">
<title>6</title>
<path fill="#e58139" fill-opacity="0.035294" stroke="#000000" d="M366,-425C366,-425 290,-425 290,-425 284,-425 278,-419 278,-413 278,-413 278,-354 278,-354 278,-348 284,-342 290,-342 290,-342 366,-342 366,-342 372,-342 378,-348 378,-354 378,-354 378,-413 378,-413 378,-419 372,-425 366,-425"/>
<text text-anchor="start" x="293" y="-409.8" font-family="Helvetica,sans-Serif" font-size="14.00" fill="#000000">proline ≤ 724.5</text>
<text text-anchor="start" x="297" y="-394.8" font-family="Helvetica,sans-Serif" font-size="14.00" fill="#000000">entropy = 1.0</text>
<text text-anchor="start" x="293.5" y="-379.8" font-family="Helvetica,sans-Serif" font-size="14.00" fill="#000000">samples = 116</text>
<text text-anchor="start" x="286" y="-364.8" font-family="Helvetica,sans-Serif" font-size="14.00" fill="#000000">value = [59, 57, 0]</text>
<text text-anchor="start" x="292" y="-349.8" font-family="Helvetica,sans-Serif" font-size="14.00" fill="#000000">class = class_0</text>
</g>
<!-- 0&#45;&gt;6 -->
<g id="edge6" class="edge">
<title>0&#45;&gt;6</title>
<path fill="none" stroke="#000000" d="M259.7239,-460.8796C267.6707,-451.8733 276.149,-442.2644 284.3326,-432.9897"/>
<polygon fill="#000000" stroke="#000000" points="287.1275,-435.1122 291.1193,-425.2981 281.8787,-430.4808 287.1275,-435.1122"/>
<text text-anchor="middle" x="292.6788" y="-446.5494" font-family="Helvetica,sans-Serif" font-size="14.00" fill="#000000">False</text>
</g>
<!-- 2 -->
<g id="node3" class="node">
<title>2</title>
<path fill="#39e581" stroke="#000000" d="M82,-298.5C82,-298.5 12,-298.5 12,-298.5 6,-298.5 0,-292.5 0,-286.5 0,-286.5 0,-242.5 0,-242.5 0,-236.5 6,-230.5 12,-230.5 12,-230.5 82,-230.5 82,-230.5 88,-230.5 94,-236.5 94,-242.5 94,-242.5 94,-286.5 94,-286.5 94,-292.5 88,-298.5 82,-298.5"/>
<text text-anchor="start" x="16" y="-283.3" font-family="Helvetica,sans-Serif" font-size="14.00" fill="#000000">entropy = 0.0</text>
<text text-anchor="start" x="15.5" y="-268.3" font-family="Helvetica,sans-Serif" font-size="14.00" fill="#000000">samples = 13</text>
<text text-anchor="start" x="8" y="-253.3" font-family="Helvetica,sans-Serif" font-size="14.00" fill="#000000">value = [0, 13, 0]</text>
<text text-anchor="start" x="11" y="-238.3" font-family="Helvetica,sans-Serif" font-size="14.00" fill="#000000">class = class_1</text>
</g>
<!-- 1&#45;&gt;2 -->
<g id="edge2" class="edge">
<title>1&#45;&gt;2</title>
<path fill="none" stroke="#000000" d="M119.8278,-341.8796C108.9611,-330.3337 97.1624,-317.7976 86.2891,-306.2446"/>
<polygon fill="#000000" stroke="#000000" points="88.6988,-303.6982 79.2964,-298.8149 83.6014,-308.4958 88.6988,-303.6982"/>
</g>
<!-- 3 -->
<g id="node4" class="node">
<title>3</title>
<path fill="#8139e5" fill-opacity="0.980392" stroke="#000000" d="M194,-306C194,-306 124,-306 124,-306 118,-306 112,-300 112,-294 112,-294 112,-235 112,-235 112,-229 118,-223 124,-223 124,-223 194,-223 194,-223 200,-223 206,-229 206,-235 206,-235 206,-294 206,-294 206,-300 200,-306 194,-306"/>
<text text-anchor="start" x="134.5" y="-290.8" font-family="Helvetica,sans-Serif" font-size="14.00" fill="#000000">ash ≤ 2.06</text>
<text text-anchor="start" x="122" y="-275.8" font-family="Helvetica,sans-Serif" font-size="14.00" fill="#000000">entropy = 0.144</text>
<text text-anchor="start" x="127.5" y="-260.8" font-family="Helvetica,sans-Serif" font-size="14.00" fill="#000000">samples = 49</text>
<text text-anchor="start" x="120" y="-245.8" font-family="Helvetica,sans-Serif" font-size="14.00" fill="#000000">value = [0, 1, 48]</text>
<text text-anchor="start" x="123" y="-230.8" font-family="Helvetica,sans-Serif" font-size="14.00" fill="#000000">class = class_2</text>
</g>
<!-- 1&#45;&gt;3 -->
<g id="edge3" class="edge">
<title>1&#45;&gt;3</title>
<path fill="none" stroke="#000000" d="M159,-341.8796C159,-333.6838 159,-324.9891 159,-316.5013"/>
<polygon fill="#000000" stroke="#000000" points="162.5001,-316.298 159,-306.2981 155.5001,-316.2981 162.5001,-316.298"/>
</g>
<!-- 4 -->
<g id="node5" class="node">
<title>4</title>
<path fill="#39e581" stroke="#000000" d="M81.5,-179.5C81.5,-179.5 16.5,-179.5 16.5,-179.5 10.5,-179.5 4.5,-173.5 4.5,-167.5 4.5,-167.5 4.5,-123.5 4.5,-123.5 4.5,-117.5 10.5,-111.5 16.5,-111.5 16.5,-111.5 81.5,-111.5 81.5,-111.5 87.5,-111.5 93.5,-117.5 93.5,-123.5 93.5,-123.5 93.5,-167.5 93.5,-167.5 93.5,-173.5 87.5,-179.5 81.5,-179.5"/>
<text text-anchor="start" x="18" y="-164.3" font-family="Helvetica,sans-Serif" font-size="14.00" fill="#000000">entropy = 0.0</text>
<text text-anchor="start" x="20.5" y="-149.3" font-family="Helvetica,sans-Serif" font-size="14.00" fill="#000000">samples = 1</text>
<text text-anchor="start" x="12.5" y="-134.3" font-family="Helvetica,sans-Serif" font-size="14.00" fill="#000000">value = [0, 1, 0]</text>
<text text-anchor="start" x="13" y="-119.3" font-family="Helvetica,sans-Serif" font-size="14.00" fill="#000000">class = class_1</text>
</g>
<!-- 3&#45;&gt;4 -->
<g id="edge4" class="edge">
<title>3&#45;&gt;4</title>
<path fill="none" stroke="#000000" d="M120.5273,-222.8796C109.8547,-211.3337 98.2667,-198.7976 87.5875,-187.2446"/>
<polygon fill="#000000" stroke="#000000" points="90.0778,-184.7825 80.7197,-179.8149 84.9375,-189.534 90.0778,-184.7825"/>
</g>
<!-- 5 -->
<g id="node6" class="node">
<title>5</title>
<path fill="#8139e5" stroke="#000000" d="M194,-179.5C194,-179.5 124,-179.5 124,-179.5 118,-179.5 112,-173.5 112,-167.5 112,-167.5 112,-123.5 112,-123.5 112,-117.5 118,-111.5 124,-111.5 124,-111.5 194,-111.5 194,-111.5 200,-111.5 206,-117.5 206,-123.5 206,-123.5 206,-167.5 206,-167.5 206,-173.5 200,-179.5 194,-179.5"/>
<text text-anchor="start" x="128" y="-164.3" font-family="Helvetica,sans-Serif" font-size="14.00" fill="#000000">entropy = 0.0</text>
<text text-anchor="start" x="127.5" y="-149.3" font-family="Helvetica,sans-Serif" font-size="14.00" fill="#000000">samples = 48</text>
<text text-anchor="start" x="120" y="-134.3" font-family="Helvetica,sans-Serif" font-size="14.00" fill="#000000">value = [0, 0, 48]</text>
<text text-anchor="start" x="123" y="-119.3" font-family="Helvetica,sans-Serif" font-size="14.00" fill="#000000">class = class_2</text>
</g>
<!-- 3&#45;&gt;5 -->
<g id="edge5" class="edge">
<title>3&#45;&gt;5</title>
<path fill="none" stroke="#000000" d="M159,-222.8796C159,-212.2134 159,-200.7021 159,-189.9015"/>
<polygon fill="#000000" stroke="#000000" points="162.5001,-189.8149 159,-179.8149 155.5001,-189.815 162.5001,-189.8149"/>
</g>
<!-- 7 -->
<g id="node8" class="node">
<title>7</title>
<path fill="#39e581" fill-opacity="0.980392" stroke="#000000" d="M363,-306C363,-306 293,-306 293,-306 287,-306 281,-300 281,-294 281,-294 281,-235 281,-235 281,-229 287,-223 293,-223 293,-223 363,-223 363,-223 369,-223 375,-229 375,-235 375,-235 375,-294 375,-294 375,-300 369,-306 363,-306"/>
<text text-anchor="start" x="289.5" y="-290.8" font-family="Helvetica,sans-Serif" font-size="14.00" fill="#000000">alcohol ≤ 13.175</text>
<text text-anchor="start" x="291" y="-275.8" font-family="Helvetica,sans-Serif" font-size="14.00" fill="#000000">entropy = 0.133</text>
<text text-anchor="start" x="296.5" y="-260.8" font-family="Helvetica,sans-Serif" font-size="14.00" fill="#000000">samples = 54</text>
<text text-anchor="start" x="289" y="-245.8" font-family="Helvetica,sans-Serif" font-size="14.00" fill="#000000">value = [1, 53, 0]</text>
<text text-anchor="start" x="292" y="-230.8" font-family="Helvetica,sans-Serif" font-size="14.00" fill="#000000">class = class_1</text>
</g>
<!-- 6&#45;&gt;7 -->
<g id="edge7" class="edge">
<title>6&#45;&gt;7</title>
<path fill="none" stroke="#000000" d="M328,-341.8796C328,-333.6838 328,-324.9891 328,-316.5013"/>
<polygon fill="#000000" stroke="#000000" points="331.5001,-316.298 328,-306.2981 324.5001,-316.2981 331.5001,-316.298"/>
</g>
<!-- 12 -->
<g id="node13" class="node">
<title>12</title>
<path fill="#e58139" fill-opacity="0.929412" stroke="#000000" d="M538,-306C538,-306 446,-306 446,-306 440,-306 434,-300 434,-294 434,-294 434,-235 434,-235 434,-229 440,-223 446,-223 446,-223 538,-223 538,-223 544,-223 550,-229 550,-235 550,-235 550,-294 550,-294 550,-300 544,-306 538,-306"/>
<text text-anchor="start" x="442" y="-290.8" font-family="Helvetica,sans-Serif" font-size="14.00" fill="#000000">color_intensity ≤ 3.46</text>
<text text-anchor="start" x="455" y="-275.8" font-family="Helvetica,sans-Serif" font-size="14.00" fill="#000000">entropy = 0.345</text>
<text text-anchor="start" x="460.5" y="-260.8" font-family="Helvetica,sans-Serif" font-size="14.00" fill="#000000">samples = 62</text>
<text text-anchor="start" x="453" y="-245.8" font-family="Helvetica,sans-Serif" font-size="14.00" fill="#000000">value = [58, 4, 0]</text>
<text text-anchor="start" x="456" y="-230.8" font-family="Helvetica,sans-Serif" font-size="14.00" fill="#000000">class = class_0</text>
</g>
<!-- 6&#45;&gt;12 -->
<g id="edge12" class="edge">
<title>6&#45;&gt;12</title>
<path fill="none" stroke="#000000" d="M378.0965,-347.1495C393.3375,-336.0905 410.3205,-323.7675 426.4226,-312.0836"/>
<polygon fill="#000000" stroke="#000000" points="428.7105,-314.7479 434.7487,-306.0421 424.5994,-309.0822 428.7105,-314.7479"/>
</g>
<!-- 8 -->
<g id="node9" class="node">
<title>8</title>
<path fill="#39e581" stroke="#000000" d="M306,-179.5C306,-179.5 236,-179.5 236,-179.5 230,-179.5 224,-173.5 224,-167.5 224,-167.5 224,-123.5 224,-123.5 224,-117.5 230,-111.5 236,-111.5 236,-111.5 306,-111.5 306,-111.5 312,-111.5 318,-117.5 318,-123.5 318,-123.5 318,-167.5 318,-167.5 318,-173.5 312,-179.5 306,-179.5"/>
<text text-anchor="start" x="240" y="-164.3" font-family="Helvetica,sans-Serif" font-size="14.00" fill="#000000">entropy = 0.0</text>
<text text-anchor="start" x="239.5" y="-149.3" font-family="Helvetica,sans-Serif" font-size="14.00" fill="#000000">samples = 50</text>
<text text-anchor="start" x="232" y="-134.3" font-family="Helvetica,sans-Serif" font-size="14.00" fill="#000000">value = [0, 50, 0]</text>
<text text-anchor="start" x="235" y="-119.3" font-family="Helvetica,sans-Serif" font-size="14.00" fill="#000000">class = class_1</text>
</g>
<!-- 7&#45;&gt;8 -->
<g id="edge8" class="edge">
<title>7&#45;&gt;8</title>
<path fill="none" stroke="#000000" d="M308.0642,-222.8796C302.7971,-211.8835 297.0999,-199.9893 291.789,-188.9015"/>
<polygon fill="#000000" stroke="#000000" points="294.9131,-187.3217 287.4366,-179.8149 288.6,-190.3457 294.9131,-187.3217"/>
</g>
<!-- 9 -->
<g id="node10" class="node">
<title>9</title>
<path fill="#39e581" fill-opacity="0.666667" stroke="#000000" d="M417.5,-187C417.5,-187 348.5,-187 348.5,-187 342.5,-187 336.5,-181 336.5,-175 336.5,-175 336.5,-116 336.5,-116 336.5,-110 342.5,-104 348.5,-104 348.5,-104 417.5,-104 417.5,-104 423.5,-104 429.5,-110 429.5,-116 429.5,-116 429.5,-175 429.5,-175 429.5,-181 423.5,-187 417.5,-187"/>
<text text-anchor="start" x="344.5" y="-171.8" font-family="Helvetica,sans-Serif" font-size="14.00" fill="#000000">alcohol ≤ 13.365</text>
<text text-anchor="start" x="346" y="-156.8" font-family="Helvetica,sans-Serif" font-size="14.00" fill="#000000">entropy = 0.811</text>
<text text-anchor="start" x="354.5" y="-141.8" font-family="Helvetica,sans-Serif" font-size="14.00" fill="#000000">samples = 4</text>
<text text-anchor="start" x="346.5" y="-126.8" font-family="Helvetica,sans-Serif" font-size="14.00" fill="#000000">value = [1, 3, 0]</text>
<text text-anchor="start" x="347" y="-111.8" font-family="Helvetica,sans-Serif" font-size="14.00" fill="#000000">class = class_1</text>
</g>
<!-- 7&#45;&gt;9 -->
<g id="edge9" class="edge">
<title>7&#45;&gt;9</title>
<path fill="none" stroke="#000000" d="M347.2363,-222.8796C351.1908,-214.3236 355.3966,-205.2238 359.4825,-196.3833"/>
<polygon fill="#000000" stroke="#000000" points="362.6632,-197.8439 363.6816,-187.2981 356.309,-194.907 362.6632,-197.8439"/>
</g>
<!-- 10 -->
<g id="node11" class="node">
<title>10</title>
<path fill="#e58139" stroke="#000000" d="M362.5,-68C362.5,-68 297.5,-68 297.5,-68 291.5,-68 285.5,-62 285.5,-56 285.5,-56 285.5,-12 285.5,-12 285.5,-6 291.5,0 297.5,0 297.5,0 362.5,0 362.5,0 368.5,0 374.5,-6 374.5,-12 374.5,-12 374.5,-56 374.5,-56 374.5,-62 368.5,-68 362.5,-68"/>
<text text-anchor="start" x="299" y="-52.8" font-family="Helvetica,sans-Serif" font-size="14.00" fill="#000000">entropy = 0.0</text>
<text text-anchor="start" x="301.5" y="-37.8" font-family="Helvetica,sans-Serif" font-size="14.00" fill="#000000">samples = 1</text>
<text text-anchor="start" x="293.5" y="-22.8" font-family="Helvetica,sans-Serif" font-size="14.00" fill="#000000">value = [1, 0, 0]</text>
<text text-anchor="start" x="294" y="-7.8" font-family="Helvetica,sans-Serif" font-size="14.00" fill="#000000">class = class_0</text>
</g>
<!-- 9&#45;&gt;10 -->
<g id="edge10" class="edge">
<title>9&#45;&gt;10</title>
<path fill="none" stroke="#000000" d="M363.2648,-103.9815C359.1582,-95.3423 354.8194,-86.2144 350.6799,-77.5059"/>
<polygon fill="#000000" stroke="#000000" points="353.7409,-75.7927 346.2868,-68.2637 347.4188,-78.7979 353.7409,-75.7927"/>
</g>
<!-- 11 -->
<g id="node12" class="node">
<title>11</title>
<path fill="#39e581" stroke="#000000" d="M469.5,-68C469.5,-68 404.5,-68 404.5,-68 398.5,-68 392.5,-62 392.5,-56 392.5,-56 392.5,-12 392.5,-12 392.5,-6 398.5,0 404.5,0 404.5,0 469.5,0 469.5,0 475.5,0 481.5,-6 481.5,-12 481.5,-12 481.5,-56 481.5,-56 481.5,-62 475.5,-68 469.5,-68"/>
<text text-anchor="start" x="406" y="-52.8" font-family="Helvetica,sans-Serif" font-size="14.00" fill="#000000">entropy = 0.0</text>
<text text-anchor="start" x="408.5" y="-37.8" font-family="Helvetica,sans-Serif" font-size="14.00" fill="#000000">samples = 3</text>
<text text-anchor="start" x="400.5" y="-22.8" font-family="Helvetica,sans-Serif" font-size="14.00" fill="#000000">value = [0, 3, 0]</text>
<text text-anchor="start" x="401" y="-7.8" font-family="Helvetica,sans-Serif" font-size="14.00" fill="#000000">class = class_1</text>
</g>
<!-- 9&#45;&gt;11 -->
<g id="edge11" class="edge">
<title>9&#45;&gt;11</title>
<path fill="none" stroke="#000000" d="M403.1076,-103.9815C407.2916,-95.3423 411.7123,-86.2144 415.9299,-77.5059"/>
<polygon fill="#000000" stroke="#000000" points="419.1971,-78.7893 420.4059,-68.2637 412.8971,-75.7382 419.1971,-78.7893"/>
</g>
<!-- 13 -->
<g id="node14" class="node">
<title>13</title>
<path fill="#39e581" stroke="#000000" d="M524.5,-179.5C524.5,-179.5 459.5,-179.5 459.5,-179.5 453.5,-179.5 447.5,-173.5 447.5,-167.5 447.5,-167.5 447.5,-123.5 447.5,-123.5 447.5,-117.5 453.5,-111.5 459.5,-111.5 459.5,-111.5 524.5,-111.5 524.5,-111.5 530.5,-111.5 536.5,-117.5 536.5,-123.5 536.5,-123.5 536.5,-167.5 536.5,-167.5 536.5,-173.5 530.5,-179.5 524.5,-179.5"/>
<text text-anchor="start" x="461" y="-164.3" font-family="Helvetica,sans-Serif" font-size="14.00" fill="#000000">entropy = 0.0</text>
<text text-anchor="start" x="463.5" y="-149.3" font-family="Helvetica,sans-Serif" font-size="14.00" fill="#000000">samples = 4</text>
<text text-anchor="start" x="455.5" y="-134.3" font-family="Helvetica,sans-Serif" font-size="14.00" fill="#000000">value = [0, 4, 0]</text>
<text text-anchor="start" x="456" y="-119.3" font-family="Helvetica,sans-Serif" font-size="14.00" fill="#000000">class = class_1</text>
</g>
<!-- 12&#45;&gt;13 -->
<g id="edge13" class="edge">
<title>12&#45;&gt;13</title>
<path fill="none" stroke="#000000" d="M492,-222.8796C492,-212.2134 492,-200.7021 492,-189.9015"/>
<polygon fill="#000000" stroke="#000000" points="495.5001,-189.8149 492,-179.8149 488.5001,-189.815 495.5001,-189.8149"/>
</g>
<!-- 14 -->
<g id="node15" class="node">
<title>14</title>
<path fill="#e58139" stroke="#000000" d="M637,-179.5C637,-179.5 567,-179.5 567,-179.5 561,-179.5 555,-173.5 555,-167.5 555,-167.5 555,-123.5 555,-123.5 555,-117.5 561,-111.5 567,-111.5 567,-111.5 637,-111.5 637,-111.5 643,-111.5 649,-117.5 649,-123.5 649,-123.5 649,-167.5 649,-167.5 649,-173.5 643,-179.5 637,-179.5"/>
<text text-anchor="start" x="571" y="-164.3" font-family="Helvetica,sans-Serif" font-size="14.00" fill="#000000">entropy = 0.0</text>
<text text-anchor="start" x="570.5" y="-149.3" font-family="Helvetica,sans-Serif" font-size="14.00" fill="#000000">samples = 58</text>
<text text-anchor="start" x="563" y="-134.3" font-family="Helvetica,sans-Serif" font-size="14.00" fill="#000000">value = [58, 0, 0]</text>
<text text-anchor="start" x="566" y="-119.3" font-family="Helvetica,sans-Serif" font-size="14.00" fill="#000000">class = class_0</text>
</g>
<!-- 12&#45;&gt;14 -->
<g id="edge14" class="edge">
<title>12&#45;&gt;14</title>
<path fill="none" stroke="#000000" d="M530.4727,-222.8796C541.1453,-211.3337 552.7333,-198.7976 563.4125,-187.2446"/>
<polygon fill="#000000" stroke="#000000" points="566.0625,-189.534 570.2803,-179.8149 560.9222,-184.7825 566.0625,-189.534"/>
</g>
</g>
</svg>
